<svg width="40" height="40" viewBox="0 0 40 40" fill="none" xmlns="http://www.w3.org/2000/svg">
<g clip-path="url(#clip0_409_208)">
<path d="M39.9233 9.23682L25.8933 23.2668C24.329 24.8272 22.2096 25.7035 20 25.7035C17.7904 25.7035 15.671 24.8272 14.1067 23.2668L0.0766667 9.23682C0.0533333 9.50015 0 9.73848 0 10.0002V30.0001C0.00264643 32.2095 0.88147 34.3276 2.4437 35.8898C4.00593 37.452 6.12401 38.3308 8.33333 38.3335H31.6667C33.876 38.3308 35.9941 37.452 37.5563 35.8898C39.1185 34.3276 39.9974 32.2095 40 30.0001V10.0002C40 9.73848 39.9467 9.50015 39.9233 9.23682Z" fill="white"/>
<path opacity="0.4" d="M23.5369 20.9098L38.7602 5.68484C38.0228 4.46203 36.9826 3.4499 35.7402 2.74605C34.4977 2.04221 33.0949 1.67041 31.6669 1.6665H8.33357C6.9056 1.67041 5.50274 2.04221 4.26028 2.74605C3.01782 3.4499 1.9777 4.46203 1.24023 5.68484L16.4636 20.9098C17.4029 21.8454 18.6745 22.3706 20.0002 22.3706C21.3259 22.3706 22.5976 21.8454 23.5369 20.9098Z" fill="white"/>
</g>
<defs>
<clipPath id="clip0_409_208">
<rect width="40" height="40" fill="white"/>
</clipPath>
</defs>
</svg>
