<svg width="56" height="56" viewBox="0 0 56 56" fill="none" xmlns="http://www.w3.org/2000/svg">
<path d="M22.583 17.9428V16.3335C22.583 12.8817 19.7848 10.0835 16.333 10.0835C12.8812 10.0835 10.083 12.8817 10.083 16.3335V17.726C10.083 20.3385 10.657 22.9191 11.7645 25.2853L12.8236 27.5483C12.9537 27.826 13.2949 27.9312 13.5587 27.7745L18.7359 24.7008C21.121 23.2848 22.583 20.7165 22.583 17.9428Z" fill="white"/>
<path d="M38.0583 33.4175L39.6682 33.4178C43.1192 33.4183 45.9165 36.2161 45.9165 39.6673C45.9165 43.1188 43.1185 45.9168 39.667 45.9168H38.2735C35.6602 45.9168 33.0788 45.3425 30.712 44.2345L28.8918 43.3823C28.3783 43.1418 28.1842 42.511 28.4735 42.0233L31.2988 37.2648C32.715 34.8793 35.284 33.4171 38.0583 33.4175Z" fill="white"/>
<path opacity="0.4" fill-rule="evenodd" clip-rule="evenodd" d="M13.3184 25.8088C13.9276 25.4841 14.6847 25.7146 15.0095 26.3238C18.35 32.5891 23.488 37.7134 29.764 41.0373C30.3742 41.3603 30.6067 42.1168 30.2837 42.7269C29.9605 43.3369 29.204 43.5696 28.594 43.2464C21.8772 39.6894 16.3785 34.2053 12.8035 27.4999C12.4787 26.8908 12.7092 26.1336 13.3184 25.8088Z" fill="white"/>
</svg>
