<svg width="56" height="56" viewBox="0 0 56 56" fill="none" xmlns="http://www.w3.org/2000/svg">
<path fill-rule="evenodd" clip-rule="evenodd" d="M20.5511 16.7563C14.3398 16.7563 9.29688 21.7979 9.29688 28.0092C9.29688 34.2205 14.3398 39.262 20.5511 39.262C26.7623 39.262 31.8052 34.2205 31.8052 28.0092C31.8052 21.7979 26.7623 16.7563 20.5511 16.7563ZM20.5511 19.2571C25.3819 19.2571 29.3045 23.1784 29.3045 28.0092C29.3045 32.84 25.3819 36.7613 20.5511 36.7613C15.7202 36.7613 11.7977 32.84 11.7977 28.0092C11.7977 23.1784 15.7202 19.2571 20.5511 19.2571Z" fill="white"/>
<path d="M20.5006 31.7508C23.2624 31.7508 25.5012 29.5119 25.5012 26.7501C25.5012 23.9884 23.2624 21.7495 20.5006 21.7495C17.7389 21.7495 15.5 23.9884 15.5 26.7501C15.5 29.5119 17.7389 31.7508 20.5006 31.7508Z" fill="white"/>
<path fill-rule="evenodd" clip-rule="evenodd" d="M13.0763 35.6775C13.0126 36.1188 13.1888 36.56 13.5388 36.8363C15.4538 38.3475 17.8726 39.25 20.5001 39.25C23.1263 39.25 25.5451 38.3475 27.4601 36.8363C27.8101 36.56 27.9876 36.1188 27.9238 35.6775C27.4026 32.0438 24.2776 29.25 20.5001 29.25H20.4976C16.7201 29.25 13.5963 32.0438 13.0763 35.6775Z" fill="white"/>
<path opacity="0.4" fill-rule="evenodd" clip-rule="evenodd" d="M36.75 8V14.25C36.75 15.245 37.145 16.1988 37.8487 16.9013C38.5512 17.605 39.505 18 40.5 18H46.75V44.25C46.75 45.245 46.355 46.1988 45.6513 46.9013C44.9488 47.605 43.995 48 43 48C38.21 48 27.79 48 23 48C22.005 48 21.0512 47.605 20.3487 46.9013C19.645 46.1988 19.25 45.245 19.25 44.25V38H20.5V36.75C25.3287 36.75 29.25 32.8288 29.25 28C29.25 23.1713 25.3287 19.25 20.5 19.25V18H19.25V11.75C19.25 9.67875 20.9288 8 23 8H36.75ZM35.5 36.75H40.5C41.19 36.75 41.75 36.19 41.75 35.5C41.75 34.81 41.19 34.25 40.5 34.25H35.5C34.81 34.25 34.25 34.81 34.25 35.5C34.25 36.19 34.81 36.75 35.5 36.75ZM35.5 31.75H40.5C41.19 31.75 41.75 31.19 41.75 30.5C41.75 29.81 41.19 29.25 40.5 29.25H35.5C34.81 29.25 34.25 29.81 34.25 30.5C34.25 31.19 34.81 31.75 35.5 31.75ZM35.5 26.75H40.5C41.19 26.75 41.75 26.19 41.75 25.5C41.75 24.81 41.19 24.25 40.5 24.25H35.5C34.81 24.25 34.25 24.81 34.25 25.5C34.25 26.19 34.81 26.75 35.5 26.75ZM39.25 8.7325L46.0175 15.5H40.5C40.1688 15.5 39.85 15.3688 39.6162 15.1338C39.3812 14.9 39.25 14.5813 39.25 14.25V8.7325Z" fill="white"/>
</svg>
