<svg width="25" height="24" viewBox="0 0 25 24" fill="none" xmlns="http://www.w3.org/2000/svg">
<path d="M4.75 7.5C4.75 10.9518 7.54822 13.75 11 13.75C14.4518 13.75 17.25 10.9518 17.25 7.5C17.25 4.04822 14.4518 1.25 11 1.25C7.54822 1.25 4.75 4.04822 4.75 7.5Z" fill="#666666"/>
<path opacity="0.4" d="M13.3334 22.7501C11.914 21.6528 11 19.9333 11 18.0004C11 17.0278 11.2314 16.1093 11.6422 15.2969C8.42751 15.6492 5.72022 17.9599 4.90732 21.1511L4.5 22.7501H13.3334Z" fill="#666666"/>
<path fill-rule="evenodd" clip-rule="evenodd" d="M12.25 18C12.25 20.6234 14.3766 22.75 17 22.75C19.6234 22.75 21.75 20.6234 21.75 18C21.75 15.3766 19.6234 13.25 17 13.25C14.3766 13.25 12.25 15.3766 12.25 18ZM17 19.75C17.4142 19.75 17.75 19.4142 17.75 19V18.75H18C18.4142 18.75 18.75 18.4142 18.75 18C18.75 17.5858 18.4142 17.25 18 17.25H17.75V17C17.75 16.5858 17.4142 16.25 17 16.25C16.5858 16.25 16.25 16.5858 16.25 17V17.25H16C15.5858 17.25 15.25 17.5858 15.25 18C15.25 18.4142 15.5858 18.75 16 18.75H16.25V19C16.25 19.4142 16.5858 19.75 17 19.75Z" fill="#666666"/>
</svg>
